<svg width="409" height="780" viewBox="0 0 409 780" xmlns="http://www.w3.org/2000/svg">
  <g transform="translate(0 -8)" fill="none" fill-rule="evenodd">
    <path d="M285.625 294.853c11.863.347 17.643-6.579 17.643-12.724 0-6.144-17.27-15.129-26.634-15.129-9.363 0-26.634-.017-26.634 6.127 0 6.145 23.763 21.379 35.625 21.726z" fill="#B4B4B4"/>
    <path d="M408.568 569.263v-261.53c0-6.826-5.279-12.489-12.088-12.968A2736.244 2736.244 0 0 0 204.284 288c-64.066 0-128.131 2.255-192.197 6.765C5.28 295.244 0 300.907 0 307.733v278.716c0 .428.02.851.061 1.269C2.741 698.328 93.245 787.17 204.5 787.17c112.942 0 204.5-91.558 204.5-204.5 0-4.505-.146-8.975-.432-13.407z" fill="#BF3A3B"/>
    <circle fill="#FAECAC" cx="112.028" cy="401.028" r="49.028"/>
    <circle fill="#FAECAC" cx="112.028" cy="525.684" r="49.028"/>
    <circle fill="#FAECAC" cx="112.028" cy="650.34" r="49.028"/>
    <circle fill="#FAECAC" cx="297.245" cy="401.028" r="49.028"/>
    <circle fill="#FAECAC" cx="297.245" cy="525.684" r="49.028"/>
    <circle fill="#FAECAC" cx="297.245" cy="650.34" r="49.028"/>
    <path fill="#C4C4C4" d="M192 353.775L204.66 337l12.66 16.775-1 260.588H193z"/>
    <path d="M194.566 650.973l-1.744-21.971c-15.334-2.978-27.455-11.553-31.822-22.474A48.304 48.304 0 0 1 167.212 592c5.155 11.654 20.019 20.076 37.551 20.076 17.533 0 32.396-8.422 37.551-20.076a48.304 48.304 0 0 1 6.213 14.528c-4.46 11.152-17.005 19.858-32.802 22.656l-1.736 21.819a13.455 13.455 0 0 1 3.774 9.362c0 7.456-6.044 13.5-13.5 13.5s-13.5-6.044-13.5-13.5c0-3.65 1.45-6.962 3.803-9.392z" fill="#F0D18E"/>
    <path d="M168.67 207.945l94.713-39.18c-8.408 16.842-12.686 29.902-12.834 39.18-.148 9.278.442 17.656 1.769 25.136-14.439 14.554-31.076 22.663-49.91 24.327-18.836 1.664-30.082-1.602-33.738-9.8 2.707-2.14 4.06-8.339 4.06-18.6 0-10.26-1.353-17.281-4.06-21.063z" fill="#E3E3E3"/>
    <path d="M170.837 246.137c17.2 4.943 33.843 5.459 49.929 1.549 16.086-3.91 26.53-9.287 31.33-16.131 12.051 6.549 22.773 14.204 32.164 22.966 9.39 8.761 15.742 17.694 19.054 26.798-12.703-7.726-27.17-7.726-43.402 0-18.158 8.641-32.563 36.618-56.093 39.271-13.852 1.562-26.93-.205-39.237-5.3-18.667 23.688-38.753 31.475-60.258 23.361 16.01-22.363 27.366-40.743 34.069-55.14 6.702-14.397 17.517-26.855 32.444-37.374zm25.455-29.728c28.393-3.548 71.38-28.411 71.38-68.062 0-39.651-32.15-68.366-65.142-68.366s-61.263 32.833-61.263 72.484c0 39.651 26.633 67.492 55.025 63.944z" fill="#D8D8D8"/>
    <path d="M145.534 182.425c-4.719-8.443-7.555-19.284-7.555-31.108 0-9.727 1.92-18.788 5.226-26.397l60.485 29.222a71.621 71.621 0 0 1-.477 5.955l-57.68 22.328z" fill="#B7B7B7"/>
    <path d="M131.227 174.452c3.885 11.71 9.64 22.09 16.766 30.483 20.516-7.17 40.628-22.974 60.336-47.409-21.161-40.232-43.704-64.984-67.629-74.257-8.189 13.226-13.528 29.65-14.778 47.637 28.955 5.324 54.54 14.65 76.755 27.98-20.492 9.882-44.309 15.07-71.45 15.566z" fill="#E4E4E4"/>
    <ellipse fill="#ECECEC" transform="rotate(19 208.672 158.163)" cx="208.672" cy="158.163" rx="8.221" ry="11.461"/>
    <path d="M214.957 94.828c-21.245-23.076-33.723-27.207-37.432-12.393-11.288-10.96-13.786-12.016-3.367-27.218 6.946-10.135 20.546 3.07 40.799 39.611z" fill="#D8D8D8"/>
    <path d="M213.69 95.404c-20.884-41.708-34.83-45.835-41.839-12.38-10.214-14.047-13.305-24.79 3.132-38.264 10.959-8.983 23.86 7.898 38.706 50.644z" fill="#CFCFCF"/>
    <path d="M211.394 90.51C200.35 53.4 182.51 45.758 157.871 67.584c4.362-17.253 12.226-34.576 31.51-32.738 12.857 1.225 20.194 19.78 22.013 55.666z" fill="#C8C8C8"/>
    <path d="M211.394 90.51c-2.467-45.074-20.35-58.957-53.647-41.648 7.453-15.254 15.908-23.302 35.272-21.548 10.024.909 18.022 3.622 21.775 18.623 1.717 6.865.584 21.723-3.4 44.574z" fill="#BEBEBE"/>
    <path d="M210.675 103.695c8.043-44.576.58-54.565-22.388-29.966 1.457-19.211 4.192-37.276 27.657-39.468 15.644-1.461 13.887 21.684-5.269 69.434z" fill="#EEE"/>
    <path d="M209.342 103.002c23.312-52.308 15.783-68.702-22.587-49.183 5.217-20.62 13.117-31.932 39.842-26.937 17.818 3.33 12.066 28.703-17.255 76.12z" fill="#DDD"/>
    <path d="M212.706 97.13c33.226-57.762 26.371-79.298-20.565-64.608 16.56-19.231 50.045-26.534 64.321-6.669 9.518 13.243-5.068 37.003-43.756 71.278z" fill="#D0D0D0"/>
    <path d="M212.742 96.926c45.055-43.886 46.022-71.68 2.902-83.384 15.176-9.157 31.543-6.011 45.966 13.864 7.466 10.29 8.137 22.877-3.17 38.125-5.173 6.978-20.406 17.442-45.698 31.395z" fill="#C7C7C7"/>
    <path d="M239.308 91.305c9.224 8.678 12.548 5.943 19.808 7.733 1.088.268 2.203.573 3.345.912 4.32 1.286 11.667 4.365 22.043 9.237-5.5-21.13-12.076-32.64-19.727-34.526-7.651-1.887-19.017-1.893-25.469 16.644z" fill="#A5A5A5"/>
    <path d="M246.101 95.527c8.375 11.251 11.445 12.503 18.386 15.286 6.94 2.783 16.333 6.851 28.178 12.203-6.382-18.984-13.23-29.942-20.543-32.876-7.315-2.933-20.005-5.38-26.02 5.387z" fill="#C0C0C0"/>
    <path d="M248.774 97.288c5.404 12.943 11.137 21.605 17.197 25.984 6.061 4.38 14.191 10.6 24.39 18.658-1.6-19.964-5.593-32.254-11.98-36.87-6.387-4.615-16.257-7.206-29.607-7.772z" fill="#CACACA"/>
    <path d="M289.425 185.5c2.161-.226-.87-16.604-1.709-32.604-.838-16-16.466-29.818-26.195-29.309-9.73.51-7.832 14.201-6.994 30.201.839 16 32.737 31.938 34.898 31.712z" fill="#E1E1E1"/>
    <path d="M285.74 167.102c-1.426 3.062 5.522-9.73-8.426-20.134-13.949-10.405-30.028-26.484-20.796-34.51 9.233-8.025 25.105 1.711 31.29 15.173 6.187 13.462-.641 36.409-2.068 39.47z" fill="#D0D0D0"/>
    <path d="M248.09 94.765c-3.485 2.922-6.943 7.63-10.372 14.125a78.708 78.708 0 0 0-1.529 3.06c-1.91 4.032-4.634 11.581-8.17 22.645-8.35-22.563-9.117-37.214-2.304-43.95 8.134-8.045 15.592-6.671 22.375 4.12z" fill="#B2B2B2"/>
    <path d="M250.726 95.712c-1.668 9.328-4.216 17.24-7.646 23.734-3.43 6.495-5.758 15.85-6.984 28.068-9.354-20.725-12.224-34.51-8.61-41.354 3.615-6.844 11.361-10.327 23.24-10.448z" fill="#C1C1C1"/>
    <path d="M251.227 99.578c6.778 6.099 6.699 15.593-.237 28.483s-9.73 21.515-8.382 25.875c-8.422-19.263-10.826-32.317-7.211-39.161 3.614-6.844 8.89-11.91 15.83-15.197z" fill="#D2D2D2"/>
    <path d="M265.07 174.37c3.152 1.211-10.208-2.266-7.402-19.44s9.937-44.136-2.28-43.495c-12.216.64-14.103 15.245-13.112 34.163.992 18.92 19.64 27.56 22.793 28.771zM233 83.73c13.828-19.473 28.836-28.307 45.024-26.5 17.615 1.967 31.714 16.49 34.276 31.683.887 5.259.033 17.18-2.562 35.764-6.939-2.174-15.723-12.542-26.353-31.103-15.119-26.4-31.914-29.68-50.385-9.844z" fill="#D8D8D8"/>
    <path d="M226 93.418c11.9-21.069 29.191-29.04 51.87-23.913 17.178 3.883 27.944 24.341 30.727 48.354.613 5.288 4.35 11.867 11.21 19.737-23.947-4.55-41.236-16.107-51.866-34.668-15.12-26.4-29.1-29.57-41.941-9.51z" fill="#C8C8C8"/>
    <path d="M226 93.266c8.437-16.032 22.897-20.213 43.382-12.543 14.543 5.445 22.194 19.638 32.796 38.67 2.424 4.35 11.718 10.672 27.883 18.962-24.237 0-43.29-8.617-57.157-25.85C252.752 87.462 237.118 81.05 226 93.266z" fill="#BABABA"/>
  </g>
</svg>
